<?xml version="1.0" encoding="UTF-8"?>
<!-- Created with Inkscape (http://www.inkscape.org/) -->
<svg width="83.782mm" height="83.782mm" version="1.1" viewBox="0 0 83.782 83.782" xmlns="http://www.w3.org/2000/svg" xmlns:cc="http://creativecommons.org/ns#" xmlns:dc="http://purl.org/dc/elements/1.1/" xmlns:rdf="http://www.w3.org/1999/02/22-rdf-syntax-ns#" xmlns:xlink="http://www.w3.org/1999/xlink">
 <title>Requeuest logo</title>
 <defs>
  <symbol id="logo_rust-6"/>
 </defs>
 <g transform="translate(-456.58 102.22)">
  <g transform="matrix(.28222 0 0 .28222 395.46 -209.36)">
   <path d="m376.37 662.24-7.6149 12.186a4.4291 4.4291 0 0 1-7.5122 0l-7.6149-12.186a134.65 134.65 0 0 1-3.6506-0.3596l-9.846 10.467a4.4291 4.4291 0 0 1-7.3679-1.4656l-5.0912-13.438a134.65 134.65 0 0 1-3.5104-1.0648l-11.699 8.3447a4.4291 4.4291 0 0 1-6.9404-2.8748l-2.3717-14.173a134.65 134.65 0 0 1-3.2352-1.7292l-13.102 5.902a4.4291 4.4291 0 0 1-6.2462-4.1736l0.43884-14.363a134.65 134.65 0 0 1-2.8356-2.3271l-14.002 3.2325a4.4291 4.4291 0 0 1-5.312-5.3119l3.2325-14.002a134.65 134.65 0 0 1-2.3272-2.8356l-14.363 0.4388a4.4291 4.4291 0 0 1-4.1736-6.2462l5.902-13.102a134.65 134.65 0 0 1-1.7292-3.2351l-14.173-2.3718a4.4291 4.4291 0 0 1-2.8748-6.9404l8.3447-11.699a134.65 134.65 0 0 1-1.0648-3.5103l-13.438-5.0912a4.4291 4.4291 0 0 1-1.4656-7.3679l10.467-9.846a134.65 134.65 0 0 1-0.35956-3.6507l-12.186-7.6149a4.4291 4.4291 0 0 1 0-7.5122l12.186-7.6149a134.65 134.65 0 0 1 0.35956-3.6507l-10.467-9.846a4.4291 4.4291 0 0 1 1.4656-7.3679l13.438-5.0912a134.65 134.65 0 0 1 1.0648-3.5103l-8.3447-11.699a4.4291 4.4291 0 0 1 2.8748-6.9404l14.173-2.3717a134.65 134.65 0 0 1 1.7292-3.2352l-5.902-13.102a4.4291 4.4291 0 0 1 4.1736-6.2462l14.363 0.43883a134.65 134.65 0 0 1 2.3272-2.8356l-3.2325-14.002a4.4291 4.4291 0 0 1 5.312-5.312l14.002 3.2325a134.65 134.65 0 0 1 2.8356-2.3272l-0.43884-14.363a4.4291 4.4291 0 0 1 6.2462-4.1736l13.102 5.902a134.65 134.65 0 0 1 3.2352-1.7292l2.3717-14.173a4.4291 4.4291 0 0 1 6.9404-2.8748l11.699 8.3447a134.65 134.65 0 0 1 3.5104-1.0649l5.0912-13.438a4.4291 4.4291 0 0 1 7.3679-1.4656l9.846 10.467a134.65 134.65 0 0 1 3.6506-0.35956l7.6149-12.186a4.4291 4.4291 0 0 1 7.5122 0l7.6149 12.186a134.65 134.65 0 0 1 3.6506 0.35956l9.846-10.467a4.4291 4.4291 0 0 1 7.3679 1.4656l5.0912 13.438a134.65 134.65 0 0 1 3.5104 1.0649l11.699-8.3447a4.4291 4.4291 0 0 1 6.9404 2.8748l2.3717 14.173a134.65 134.65 0 0 1 3.2352 1.7292l13.102-5.902a4.4291 4.4291 0 0 1 6.2462 4.1736l-0.43884 14.363a134.65 134.65 0 0 1 2.8356 2.3272l14.002-3.2325a4.4291 4.4291 0 0 1 5.312 5.312l-3.2325 14.002a134.65 134.65 0 0 1 2.3272 2.8356l14.363-0.43883a4.4291 4.4291 0 0 1 4.1736 6.2462l-5.902 13.102a134.65 134.65 0 0 1 1.7292 3.2352l14.173 2.3717a4.4291 4.4291 0 0 1 2.8748 6.9404l-8.3447 11.699a134.65 134.65 0 0 1 1.0648 3.5103l13.438 5.0912a4.4291 4.4291 0 0 1 1.4656 7.3679l-10.467 9.846a134.65 134.65 0 0 1 0.35956 3.6507l12.186 7.6149a4.4291 4.4291 0 0 1 0 7.5122l-12.186 7.6149a134.65 134.65 0 0 1-0.35956 3.6507l10.467 9.846a4.4291 4.4291 0 0 1-1.4656 7.3679l-13.438 5.0912a134.65 134.65 0 0 1-1.0648 3.5103l8.3447 11.699a4.4291 4.4291 0 0 1-2.8748 6.9404l-14.173 2.3718a134.65 134.65 0 0 1-1.7292 3.2351l5.902 13.102a4.4291 4.4291 0 0 1-4.1736 6.2462l-14.363-0.4388a134.65 134.65 0 0 1-2.3272 2.8356l3.2325 14.002a4.4291 4.4291 0 0 1-5.312 5.3119l-14.002-3.2325a134.65 134.65 0 0 1-2.8356 2.3271l0.43884 14.363a4.4291 4.4291 0 0 1-6.2462 4.1736l-13.102-5.902a134.65 134.65 0 0 1-3.2352 1.7292l-2.3717 14.173a4.4291 4.4291 0 0 1-6.9404 2.8748l-11.699-8.3447a134.65 134.65 0 0 1-3.5104 1.0648l-5.0912 13.438a4.4291 4.4291 0 0 1-7.3679 1.4656l-9.846-10.467a134.65 134.65 0 0 1-3.6506 0.3596z"/>
   <use transform="translate(365 -524.29)" x="1133.8583" y="-814.96063" width="100%" height="100%" xlink:href="#logo_rust-6"/>
   <g fill="#fff">
    <path d="m373.86 414.69a8.8583 8.8583 0 1 0-17.717 0 8.8583 8.8583 0 0 0 17.717 0z"/>
    <path d="m266.02 493.04a8.8583 8.8583 0 1 0-17.717 0 8.8583 8.8583 0 0 0 17.717 0z"/>
    <path d="m307.21 619.81a8.8583 8.8583 0 1 0-17.717 0 8.8583 8.8583 0 0 0 17.717 0z"/>
    <path d="m440.5 619.81a8.8583 8.8583 0 1 0-17.717 0 8.8583 8.8583 0 0 0 17.717 0z"/>
    <path d="m481.69 493.04a8.8583 8.8583 0 1 0-17.717 0 8.8583 8.8583 0 0 0 17.717 0z"/>
    <path d="m412.08 631.23 3.7394-23.61a7.9724 7.9724 0 0 1 9.1214-6.6271l23.61 3.7394a113.39 113.39 0 0 0 29.098-89.553l-21.299-10.852a7.9724 7.9724 0 0 1-3.4841-10.723l10.852-21.299a113.39 113.39 0 0 0-76.179-55.347l-16.903 16.903a7.9724 7.9724 0 0 1-11.275 0l-16.903-16.903a113.39 113.39 0 0 0-76.179 55.347l10.852 21.299a7.9724 7.9724 0 0 1-3.4841 10.723l-21.299 10.852a113.39 113.39 0 0 0 29.098 89.553l23.61-3.7394a7.9724 7.9724 0 0 1 9.1214 6.6271l3.7394 23.61a113.39 113.39 0 0 0 94.162 0z"/>
   </g>
  </g>
  <path transform="matrix(.26458 0 0 .26458 456.58 -102.22)" d="m63.57 141.29v36.604h38.807v-36.604zm150.71 0v36.604h30.809v-36.604z" stop-color="#000000"/>
  <g transform="translate(0 2.249)" fill="#fff" stop-color="#000000" stroke="#000" stroke-width="1.0583" style="-inkscape-stroke:none;font-variation-settings:normal">
   <path d="m511.72-72.248a13.242 4.4184 0 0 1-13.242 4.4184 13.242 4.4184 0 0 1-13.242-4.4184 13.242 4.4184 0 0 1 13.242-4.4184 13.242 4.4184 0 0 1 13.242 4.4184z" stop-color="#000000" style="-inkscape-stroke:none;font-variation-settings:normal"/>
   <path d="m511.72-65.239c0 2.4402-5.9285 4.4184-13.242 4.4184-7.3132 1e-6 -13.242-1.9782-13.242-4.4184" stop-color="#000000" style="-inkscape-stroke:none;font-variation-settings:normal"/>
   <path d="m511.72-58.231c0 2.4402-5.9285 4.4184-13.242 4.4184-7.3132 1e-6 -13.242-1.9782-13.242-4.4184" stop-color="#000000" style="-inkscape-stroke:none;font-variation-settings:normal"/>
   <path d="m511.72-51.222c0 2.4402-5.9285 4.4184-13.242 4.4184-7.3132 1e-6 -13.242-1.9782-13.242-4.4184" stop-color="#000000" style="-inkscape-stroke:none;font-variation-settings:normal"/>
   <path d="m485.23-72.248v21.025" stop-color="#000000" style="-inkscape-stroke:none;font-variation-settings:normal"/>
   <path d="m511.72-72.248v21.025" stop-color="#000000" style="-inkscape-stroke:none;font-variation-settings:normal"/>
  </g>
  <path d="m515.61-70.774 10.782 10.782-10.782 10.782z" stop-color="#000000"/>
 </g>
 <metadata>
  <rdf:RDF>
   <cc:Work rdf:about="">
    <dc:title>Requeuest logo</dc:title>
    <dc:source>https://raw.githubusercontent.com/rust-lang/rust-artwork/master/logo/rust-logo-gear-only.svg</dc:source>
    <dc:description>An arrow passing through a database symbol surrounded by a gear</dc:description>
    <dc:creator>
     <cc:Agent>
      <dc:title>Amanda Graven</dc:title>
     </cc:Agent>
    </dc:creator>
    <cc:license rdf:resource="http://creativecommons.org/licenses/by/4.0/"/>
    <dc:rights>
     <cc:Agent>
      <dc:title>Rust Logo Gear © Rust Foundation, distributed under CC-BY</dc:title>
     </cc:Agent>
    </dc:rights>
   </cc:Work>
   <cc:License rdf:about="http://creativecommons.org/licenses/by/4.0/">
    <cc:permits rdf:resource="http://creativecommons.org/ns#Reproduction"/>
    <cc:permits rdf:resource="http://creativecommons.org/ns#Distribution"/>
    <cc:requires rdf:resource="http://creativecommons.org/ns#Notice"/>
    <cc:requires rdf:resource="http://creativecommons.org/ns#Attribution"/>
    <cc:permits rdf:resource="http://creativecommons.org/ns#DerivativeWorks"/>
   </cc:License>
  </rdf:RDF>
 </metadata>
</svg>
